<svg xmlns="http://www.w3.org/2000/svg" version="1.1" xmlns:xlink="http://www.w3.org/1999/xlink" xmlns:svgjs="http://svgjs.dev/svgjs" width="1500" height="935" viewBox="0 0 1500 935"><g transform="matrix(1,0,0,1,-0.9090909090909918,0.3785425101214628)"><svg viewBox="0 0 396 247" data-background-color="#ffffff" preserveAspectRatio="xMidYMid meet" height="935" width="1500" xmlns="http://www.w3.org/2000/svg" xmlns:xlink="http://www.w3.org/1999/xlink"><g id="tight-bounds" transform="matrix(1,0,0,1,0.2400000000000091,-0.09999999999999432)"><svg viewBox="0 0 395.52 247.2" height="247.2" width="395.52"><g><svg></svg></g><g><svg viewBox="0 0 395.52 247.2" height="247.2" width="395.52"><mask id="a7e717fe-370c-4f5e-bcd4-f254e90ce93d"><rect width="640" height="400" fill="white"></rect><g transform="matrix(1,0,0,1,86.89397881996972,37.08)"><svg viewBox="0 0 221.73204236006055 173.04" height="173.04" width="221.73204236006055"><g><svg viewBox="0 0 221.73204236006055 173.04" height="173.04" width="221.73204236006055"><g><svg viewBox="0 0 221.73204236006055 173.04" height="173.04" width="221.73204236006055"><g id="SvgjsG4099"><svg viewBox="0 0 221.73204236006055 173.04" height="173.04" width="221.73204236006055" id="SvgjsSvg4098"><g><svg viewBox="0 0 221.73204236006055 173.04" height="173.04" width="221.73204236006055"><g transform="matrix(1,0,0,1,0,0)"><svg width="221.73204236006055" viewBox="-1.25 -32.55 43.35 34.05" height="173.04" data-palette-color="#000000"><path d="M20.75-31.05L20.25-23.5 14.45-23.5 14.45 0 5.9 0 5.9-23.5-0.25-23.5 0.25-31.05 20.75-31.05ZM30.4-15.23Q30.4-10.8 31.27-8.93 32.15-7.05 34.15-7.05 36.15-7.05 39.8-8L39.8-8 41.1-0.95Q37.15 0.5 33.15 0.5L33.15 0.5Q27.15 0.5 24.42-3.48 21.7-7.45 21.7-15.33 21.7-23.2 24.55-27.38 27.4-31.55 33.85-31.55L33.85-31.55Q37.65-31.55 41.1-29.95L41.1-29.95 39.75-22.2Q35.85-23.5 34.3-23.5L34.3-23.5Q32.1-23.5 31.25-21.58 30.4-19.65 30.4-15.23Z" opacity="1" transform="matrix(1,0,0,1,0,0)" fill="black" class="wordmark-text-0" id="SvgjsPath4097" stroke-width="1" stroke="black" stroke-linejoin="round"></path></svg></g></svg></g></svg></g></svg></g><g></g></svg></g></svg></g></mask><g transform="matrix(1,0,0,1,86.89397881996972,37.08)"><svg viewBox="0 0 221.73204236006055 173.04" height="173.04" width="221.73204236006055"><g><svg viewBox="0 0 221.73204236006055 173.04" height="173.04" width="221.73204236006055"><g><svg viewBox="0 0 221.73204236006055 173.04" height="173.04" width="221.73204236006055"><g id="textblocktransform"><svg viewBox="0 0 221.73204236006055 173.04" height="173.04" width="221.73204236006055" id="textblock"><g><svg viewBox="0 0 221.73204236006055 173.04" height="173.04" width="221.73204236006055"><g transform="matrix(1,0,0,1,0,0)"><svg width="221.73204236006055" viewBox="-1.25 -32.55 43.35 34.05" height="173.04" data-palette-color="#000000"><path d="M20.75-31.05L20.25-23.5 14.45-23.5 14.45 0 5.9 0 5.9-23.5-0.25-23.5 0.25-31.05 20.75-31.05ZM30.4-15.23Q30.4-10.8 31.27-8.93 32.15-7.05 34.15-7.05 36.15-7.05 39.8-8L39.8-8 41.1-0.95Q37.15 0.5 33.15 0.5L33.15 0.5Q27.15 0.5 24.42-3.48 21.7-7.45 21.7-15.33 21.7-23.2 24.55-27.38 27.4-31.55 33.85-31.55L33.85-31.55Q37.65-31.55 41.1-29.95L41.1-29.95 39.75-22.2Q35.85-23.5 34.3-23.5L34.3-23.5Q32.1-23.5 31.25-21.58 30.4-19.65 30.4-15.23Z" opacity="1" transform="matrix(1,0,0,1,0,0)" fill="#000000" class="wordmark-text-0" data-fill-palette-color="primary" id="text-0"></path></svg></g></svg></g></svg></g></svg></g><g></g></svg></g></svg></g><g mask="url(#a7e717fe-370c-4f5e-bcd4-f254e90ce93d)"><g transform="matrix(2.7461802690412873, 0, 0, 2.7461802690412873, 75.16603184765192, 1)"><svg xmlns="http://www.w3.org/2000/svg" xmlns:xlink="http://www.w3.org/1999/xlink" version="1.1" x="0" y="0" viewBox="0.35833249999999595 0.3587183000000067 89.28326340000001 89.2876563" enable-background="new 0 0 90 90" xml:space="preserve" height="89.2876563" width="89.28326340000001" class="icon-none" data-fill-palette-color="accent" id="none"><polygon points="57.928,58.169 57.875,76.027 45.397,63.548 45.397,45.639 " fill="#d7d7d7" data-fill-palette-color="accent"></polygon><polygon points="76.027,57.875 58.475,57.927 45.826,45.279 63.432,45.279 " fill="#d7d7d7" data-fill-palette-color="accent"></polygon><polygon points="76.027,32.125 63.432,44.721 45.707,44.721 58.355,32.073 " fill="#d7d7d7" data-fill-palette-color="accent"></polygon><polygon points="44.838,45.59 44.838,63.314 32.125,76.027 32.074,58.355 " fill="#d7d7d7" data-fill-palette-color="accent"></polygon><polygon points="57.928,31.712 45.397,44.243 45.397,26.452 57.875,13.974 " fill="#d7d7d7" data-fill-palette-color="accent"></polygon><polygon points="44.838,26.687 44.838,44.291 32.074,31.526 32.125,13.974 " fill="#d7d7d7" data-fill-palette-color="accent"></polygon><polygon points="44.479,44.721 26.569,44.721 13.974,32.125 31.832,32.073 " fill="#d7d7d7" data-fill-palette-color="accent"></polygon><polygon points="44.36,45.279 31.712,57.927 13.974,57.875 26.569,45.279 " fill="#d7d7d7" data-fill-palette-color="accent"></polygon><rect x="58.48" y="58.48" width="18.049" height="18.049" fill="#d7d7d7" data-fill-palette-color="accent"></rect><polygon points="76.527,13.474 76.527,31.516 58.914,31.516 58.912,31.518 58.484,31.516 58.484,13.474 " fill="#d7d7d7" data-fill-palette-color="accent"></polygon><polygon points="31.518,30.971 31.516,31.516 13.474,31.516 13.474,13.474 31.516,13.474 31.516,30.968 " fill="#d7d7d7" data-fill-palette-color="accent"></polygon><rect x="13.471" y="58.48" width="18.05" height="18.049" fill="#d7d7d7" data-fill-palette-color="accent"></rect><rect x="67.864" y="35.981" transform="matrix(0.7071 -0.7071 0.7071 0.7071 -9.3022 67.5465)" width="18.042" height="18.042" fill="#d7d7d7" data-fill-palette-color="accent"></rect><rect x="35.979" y="4.094" transform="matrix(0.7071 -0.7071 0.7071 0.7071 3.9068 35.6621)" width="18.042" height="18.042" fill="#d7d7d7" data-fill-palette-color="accent"></rect><rect x="4.095" y="35.98" transform="matrix(0.7071 -0.7071 0.7071 0.7071 -27.9787 22.4536)" width="18.041" height="18.041" fill="#d7d7d7" data-fill-palette-color="accent"></rect><rect x="35.98" y="67.865" transform="matrix(0.7071 -0.7071 0.7071 0.7071 -41.1877 54.3437)" width="18.04" height="18.041" fill="#d7d7d7" data-fill-palette-color="accent"></rect></svg></g></g></svg></g><defs></defs></svg><rect width="395.52" height="247.2" fill="none" stroke="none" visibility="hidden"></rect></g></svg></g></svg>